<svg version="1.0" xmlns="http://www.w3.org/2000/svg"
 width="140.000000pt" height="120.000000pt" viewBox="0 0 230.000000 245.000000"
 preserveAspectRatio="xMidYMid meet">

<g transform="translate(0.000000,244.000000) scale(0.100000,-0.100000)"
fill="teal" stroke="none">
<path d="M320 1735 c0 -40 212 -1195 225 -1223 31 -68 129 -81 178 -23 13 16
115 179 226 362 112 184 208 339 215 346 8 8 63 -75 221 -335 116 -190 220
-359 233 -374 46 -55 143 -44 176 20 12 24 226 1183 226 1227 0 12 -19 15
-112 15 l-113 0 -74 -413 c-41 -226 -77 -418 -81 -425 -4 -7 -78 104 -184 275
-99 158 -194 303 -212 321 -40 38 -96 44 -136 13 -14 -11 -109 -155 -213 -321
-113 -180 -191 -296 -195 -288 -4 7 -40 199 -81 425 l-74 413 -112 0 c-93 0
-113 -3 -113 -15z"/>
</g>
</svg>
