<svg width="512" height="512" viewBox="0 0 512 512" fill="none" xmlns="http://www.w3.org/2000/svg">
<g clip-path="url(#clip0_502_825)">
<rect width="512" height="512" rx="61" fill="white"/>
<mask id="path-2-outside-1_502_825" maskUnits="userSpaceOnUse" x="33" y="153" width="449" height="201" fill="black">
<rect fill="white" x="33" y="153" width="449" height="201"/>
<path d="M46.2102 341V166.455H88.3977V236.511H157.176V166.455H199.278V341H157.176V270.858H88.3977V341H46.2102ZM267.588 341L216.793 166.455H263.412L289.747 280.83H291.196L321.281 166.455H359.293L389.378 281.085H390.827L417.247 166.455H463.781L413.071 341H372.418L340.969 235.148H339.605L308.156 341H267.588Z"/>
</mask>
<path d="M46.2102 341V166.455H88.3977V236.511H157.176V166.455H199.278V341H157.176V270.858H88.3977V341H46.2102ZM267.588 341L216.793 166.455H263.412L289.747 280.83H291.196L321.281 166.455H359.293L389.378 281.085H390.827L417.247 166.455H463.781L413.071 341H372.418L340.969 235.148H339.605L308.156 341H267.588Z" fill="white"/>
<path d="M46.2102 341H33.2102V354H46.2102V341ZM46.2102 166.455V153.455H33.2102V166.455H46.2102ZM88.3977 166.455H101.398V153.455H88.3977V166.455ZM88.3977 236.511H75.3977V249.511H88.3977V236.511ZM157.176 236.511V249.511H170.176V236.511H157.176ZM157.176 166.455V153.455H144.176V166.455H157.176ZM199.278 166.455H212.278V153.455H199.278V166.455ZM199.278 341V354H212.278V341H199.278ZM157.176 341H144.176V354H157.176V341ZM157.176 270.858H170.176V257.858H157.176V270.858ZM88.3977 270.858V257.858H75.3977V270.858H88.3977ZM88.3977 341V354H101.398V341H88.3977ZM59.2102 341V166.455H33.2102V341H59.2102ZM46.2102 179.455H88.3977V153.455H46.2102V179.455ZM75.3977 166.455V236.511H101.398V166.455H75.3977ZM88.3977 249.511H157.176V223.511H88.3977V249.511ZM170.176 236.511V166.455H144.176V236.511H170.176ZM157.176 179.455H199.278V153.455H157.176V179.455ZM186.278 166.455V341H212.278V166.455H186.278ZM199.278 328H157.176V354H199.278V328ZM170.176 341V270.858H144.176V341H170.176ZM157.176 257.858H88.3977V283.858H157.176V257.858ZM75.3977 270.858V341H101.398V270.858H75.3977ZM88.3977 328H46.2102V354H88.3977V328ZM267.588 341L255.106 344.633L257.832 354H267.588V341ZM216.793 166.455V153.455H199.47L204.31 170.087L216.793 166.455ZM263.412 166.455L276.08 163.538L273.759 153.455H263.412V166.455ZM289.747 280.83L277.079 283.747L279.4 293.83H289.747V280.83ZM291.196 280.83V293.83H301.219L303.768 284.137L291.196 280.83ZM321.281 166.455V153.455H311.259L308.709 163.148L321.281 166.455ZM359.293 166.455L371.867 163.154L369.321 153.455H359.293V166.455ZM389.378 281.085L376.804 284.385L379.349 294.085H389.378V281.085ZM390.827 281.085V294.085H401.171L403.495 284.005L390.827 281.085ZM417.247 166.455V153.455H406.903L404.579 163.535L417.247 166.455ZM463.781 166.455L476.265 170.081L481.096 153.455H463.781V166.455ZM413.071 341V354H422.832L425.555 344.627L413.071 341ZM372.418 341L359.956 344.702L362.718 354H372.418V341ZM340.969 235.148L353.43 231.445L350.668 222.148H340.969V235.148ZM339.605 235.148V222.148H329.906L327.143 231.445L339.605 235.148ZM308.156 341V354H317.856L320.618 344.702L308.156 341ZM280.07 337.367L229.275 162.822L204.31 170.087L255.106 344.633L280.07 337.367ZM216.793 179.455H263.412V153.455H216.793V179.455ZM250.743 169.372L277.079 283.747L302.416 277.913L276.08 163.538L250.743 169.372ZM289.747 293.83H291.196V267.83H289.747V293.83ZM303.768 284.137L333.854 169.762L308.709 163.148L278.624 277.523L303.768 284.137ZM321.281 179.455H359.293V153.455H321.281V179.455ZM346.718 169.755L376.804 284.385L401.952 277.785L371.867 163.154L346.718 169.755ZM389.378 294.085H390.827V268.085H389.378V294.085ZM403.495 284.005L429.915 169.374L404.579 163.535L378.159 278.165L403.495 284.005ZM417.247 179.455H463.781V153.455H417.247V179.455ZM451.297 162.828L400.587 337.373L425.555 344.627L476.265 170.081L451.297 162.828ZM413.071 328H372.418V354H413.071V328ZM384.879 337.298L353.43 231.445L328.507 238.85L359.956 344.702L384.879 337.298ZM340.969 222.148H339.605V248.148H340.969V222.148ZM327.143 231.445L295.695 337.298L320.618 344.702L352.067 238.85L327.143 231.445ZM308.156 328H267.588V354H308.156V328Z" fill="#002E68" mask="url(#path-2-outside-1_502_825)"/>
</g>
<defs>
<clipPath id="clip0_502_825">
<rect width="512" height="512" rx="61" fill="white"/>
</clipPath>
</defs>
</svg>
