<?xml version="1.0" standalone="no"?>
<!DOCTYPE svg PUBLIC "-//W3C//DTD SVG 1.0//EN" "http://www.w3.org/TR/2001/REC-SVG-20010904/DTD/svg10.dtd">
<svg xmlns="http://www.w3.org/2000/svg" xmlns:xlink="http://www.w3.org/1999/xlink" id="body_1" width="24" height="24">

<g transform="matrix(1 0 0 1 0 0)">
	<g>
        <path stroke-width="2%" stroke="#000" d="M19 21L9 21C 7.564 21 5.855 20.12 5.023 18.954L5.023 18.954L2.4039998 15.287001C 1.7749999 14.406001 1.2469999 13.666 1.2159998 13.626C 0.96999985 13.282001 0.9669998 12.732 1.2079998 12.385C 1.2259998 12.360001 1.7689998 11.602 2.4119997 10.699L2.4119997 10.699L5.0199995 7.0460005C 5.855 5.879 7.566 5 9 5L9 5L19 5C 20.654 5 22 6.3459997 22 8L22 8L22 18C 22 19.654 20.654 21 19 21zM3.229 12.999C 3.444 13.297999 3.727 13.695 4.035 14.124L4.035 14.124L6.653 17.791C 7.104 18.424 8.223 19 9.001 19L9.001 19L19.001 19C 19.553 19 20.001 18.55 20.001 17.999L20.001 17.999L20.001 8C 20.001 7.449 19.553 7 19.001 7L19.001 7L9.000999 7C 8.225 7 7.104 7.576 6.65 8.209L6.65 8.209L4.042 11.861C 3.73 12.297 3.443 12.699 3.229 12.999z" fill="#000000" fill-rule="nonzero" />
	</g>
        <path stroke-width="3%" stroke="#000"  d="M13.707 13L16.353 10.354C 16.547 10.16 16.547 9.842 16.353 9.647C 16.158 9.453 15.84 9.453 15.646001 9.647L15.646001 9.647L13 12.293L10.354 9.647C 10.159 9.453 9.841 9.453 9.647 9.647C 9.452001 9.842 9.452001 10.16 9.647 10.354L9.647 10.354L12.293 13L9.647 15.646C 9.452001 15.841 9.452001 16.159 9.647 16.353C 9.744 16.451 9.872 16.5 10 16.5C 10.128 16.5 10.256 16.451 10.354 16.354L10.354 16.354L13 13.707L15.646 16.353C 15.744 16.451 15.872 16.5 16 16.5C 16.128 16.5 16.256 16.451 16.354 16.354C 16.548 16.16 16.548 15.842 16.354 15.647L16.354 15.647L13.707 13z"  fill="#000000" fill-rule="nonzero" />
</g>
</svg>